<svg width="264" height="265" viewBox="0 0 264 265" fill="none" xmlns="http://www.w3.org/2000/svg">
<path fill-rule="evenodd" clip-rule="evenodd" d="M120.954 213.774C137.171 200.294 154.151 177.953 167.212 149.715C180.272 121.476 186.301 94.0701 186.071 72.9835C185.825 50.468 178.903 41.2279 173.736 38.8382C168.569 36.4485 157.046 37.1571 139.729 51.5501C123.512 65.0298 106.532 87.3707 93.4715 115.609C80.411 143.847 74.3827 171.254 74.6126 192.34C74.8582 214.856 81.7805 224.096 86.9474 226.485C92.1142 228.875 103.638 228.167 120.954 213.774ZM80.3866 240.671C108.77 253.798 154.144 216.083 181.734 156.431C209.323 96.7796 208.68 37.7805 180.297 24.653C151.914 11.5255 106.539 49.2408 78.9495 108.892C51.36 168.544 52.0034 227.543 80.3866 240.671Z" fill="white"/>
<path fill-rule="evenodd" clip-rule="evenodd" d="M212.076 144.205C199.254 127.514 177.623 109.736 149.959 95.6579C122.295 81.5799 95.1912 74.5564 74.1503 74.015C51.6835 73.437 42.2016 80.0136 39.6197 85.0871C37.0378 90.1606 37.3021 101.697 50.9932 119.52C63.8154 136.211 85.4467 153.989 113.111 168.067C140.774 182.145 167.878 189.168 188.919 189.71C211.386 190.288 220.868 183.711 223.45 178.637C226.032 173.564 225.767 162.028 212.076 144.205ZM237.347 185.709C251.53 157.839 215.654 111.137 157.216 81.3981C98.7775 51.6592 39.9063 50.1446 25.723 78.0152C11.5398 105.886 47.4156 152.587 105.854 182.326C164.292 212.065 223.163 213.58 237.347 185.709Z" fill="white"/>
<path fill-rule="evenodd" clip-rule="evenodd" d="M132.823 113.601L176.564 28.6176L189.012 35.0246L145.271 120.008L132.823 113.601Z" fill="white"/>
<path fill-rule="evenodd" clip-rule="evenodd" d="M72.5989 230.608L117.048 144.249L129.496 150.656L85.0468 237.015L72.5989 230.608Z" fill="white"/>
<path fill-rule="evenodd" clip-rule="evenodd" d="M131 236C187.885 236 234 189.885 234 133C234 76.1146 187.885 29.9999 131 29.9999C74.1147 29.9999 28 76.1146 28 133C28 189.885 74.1147 236 131 236ZM131 252C196.722 252 250 198.722 250 133C250 67.2781 196.722 13.9999 131 13.9999C65.2781 13.9999 12 67.2781 12 133C12 198.722 65.2781 252 131 252Z" fill="white"/>
<path fill-rule="evenodd" clip-rule="evenodd" d="M131 145C137.627 145 143 139.627 143 133C143 126.373 137.627 121 131 121C124.373 121 119 126.373 119 133C119 139.627 124.373 145 131 145ZM131 158C144.807 158 156 146.807 156 133C156 119.193 144.807 108 131 108C117.193 108 106 119.193 106 133C106 146.807 117.193 158 131 158Z" fill="white"/>
</svg>
